<?xml version="1.0"?>
<svg xmlns="http://www.w3.org/2000/svg" xmlns:xlink="http://www.w3.org/1999/xlink" version="1.1" viewBox="0 0 192 192" width="20px" height="20px"><g transform="translate(0.96,0.96) scale(0.99,0.99)"><g fill="none" fill-rule="nonzero" stroke="none" stroke-width="1" stroke-linecap="butt" stroke-linejoin="miter" stroke-miterlimit="10" stroke-dasharray="" stroke-dashoffset="0" font-family="none" font-weight="none" font-size="none" text-anchor="none" style="mix-blend-mode: normal"><path d="M0,192v-192h192v192z" fill="none"/><g fill="#ffffff"><g id="surface1"><path d="M96.5,0c-18.3125,0 -18,1.75 -18,1.75c-2.1875,10.5625 -4.46875,17.71875 -6,22c-9.3125,3.0625 -17.90625,7.84375 -25.25,14c-4.4375,-0.875 -11.59375,-2.5 -21.5,-6c0,0 -1.34375,-1.15625 -10.75,14.75c-9.4375,15.90625 -8,16.75 -8,16.75c7.3125,6.875 12.09375,12.15625 15,15.75c-1.25,5.46875 -2,11.15625 -2,17c0,5.3125 0.46875,10.5 1.5,15.5c-2.96875,3.53125 -7.84375,8.84375 -15.25,15.5c0,0 -1.34375,0.65625 7.75,16.75c9.09375,16.09375 10.25,15 10.25,15c10,-3.3125 17.28125,-4.71875 21.75,-5.5c7.3125,6.4375 15.84375,11.25 25.25,14.5c1.5625,4.21875 4,11.5625 6.25,22.5c0,0 -0.28125,1.75 18,1.75c18.28125,0 18.25,-1.75 18.25,-1.75c2.1875,-10.53125 4.1875,-17.71875 5.75,-22c9.3125,-3.0625 17.90625,-7.84375 25.25,-14c4.4375,0.875 11.59375,2.5 21.5,6c0,0 1.3125,1.15625 10.75,-14.75c9.40625,-15.90625 8,-16.75 8,-16.75c-7.3125,-6.875 -12.09375,-12.15625 -15,-15.75c1.25,-5.5 2,-11.15625 2,-17c0,-5.3125 -0.46875,-10.5 -1.5,-15.5c2.96875,-3.53125 7.84375,-8.84375 15.25,-15.5c0,0 1.34375,-0.65625 -7.75,-16.75c-9.09375,-16.09375 -10.25,-15 -10.25,-15c-10,3.3125 -17.28125,4.71875 -21.75,5.5c-7.3125,-6.40625 -15.84375,-11.25 -25.25,-14.5c-1.53125,-4.21875 -4,-11.5625 -6.25,-22.5c0,0 0.28125,-1.75 -18,-1.75zM96,32c35.34375,0 64,28.65625 64,64c0,35.34375 -28.65625,64 -64,64c-35.34375,0 -64,-28.65625 -64,-64c0,-35.34375 28.65625,-64 64,-64zM96,40c-30.9375,0 -56,25.0625 -56,56c0,30.9375 25.0625,56 56,56c30.9375,0 56,-25.0625 56,-56c0,-30.9375 -25.0625,-56 -56,-56zM96,64c17.6875,0 32,14.3125 32,32c0,17.6875 -14.3125,32 -32,32c-17.6875,0 -32,-14.3125 -32,-32c0,-17.6875 14.3125,-32 32,-32z"/></g></g></g></g></svg>
